# Blender v3.0.0 OBJ File: 'speedboat.blend'
# www.blender.org
mtllib coin.mtl
v 0.346172 -0.000000 0.000000
v -0.346172 0.000000 0.000000
v 0.190230 -0.000000 1.680047
v 0.295775 -0.000000 1.967933
v -0.295775 0.000000 1.967933
v -0.190230 0.000000 1.680047
v 0.295775 -0.383925 1.930120
v 0.190230 -0.327761 1.647766
v -0.190230 -0.327761 1.647766
v -0.295775 -0.383925 1.930120
v 0.295775 -0.753096 1.818133
v 0.190230 -0.642926 1.552161
v -0.190230 -0.642926 1.552161
v -0.295775 -0.753096 1.818133
v 0.295775 -1.093325 1.636277
v 0.190230 -0.933385 1.396908
v -0.190230 -0.933385 1.396908
v -0.295775 -1.093325 1.636277
v 0.295775 -1.391539 1.391539
v 0.190230 -1.187973 1.187973
v -0.190230 -1.187973 1.187973
v -0.295775 -1.391539 1.391539
v 0.295775 -1.636277 1.093325
v 0.190230 -1.396909 0.933384
v -0.190230 -1.396909 0.933384
v -0.295775 -1.636277 1.093325
v 0.295775 -1.818133 0.753095
v 0.190230 -1.552162 0.642926
v -0.190230 -1.552162 0.642926
v -0.295775 -1.818133 0.753095
v 0.295775 -1.930120 0.383925
v 0.190230 -1.647766 0.327761
v -0.190230 -1.647766 0.327761
v -0.295775 -1.930120 0.383925
v 0.295775 -1.967934 -0.000000
v 0.190230 -1.680048 -0.000000
v -0.190230 -1.680048 -0.000000
v -0.295775 -1.967934 -0.000000
v 0.295775 -1.930120 -0.383925
v 0.190230 -1.647766 -0.327761
v -0.190230 -1.647766 -0.327761
v -0.295775 -1.930120 -0.383925
v 0.295775 -1.818134 -0.753095
v 0.190230 -1.552162 -0.642926
v -0.190230 -1.552162 -0.642926
v -0.295775 -1.818134 -0.753095
v 0.295775 -1.636277 -1.093325
v 0.190230 -1.396909 -0.933384
v -0.190230 -1.396909 -0.933384
v -0.295775 -1.636277 -1.093325
v 0.295775 -1.391539 -1.391539
v 0.190230 -1.187973 -1.187973
v -0.190230 -1.187973 -1.187973
v -0.295775 -1.391539 -1.391539
v 0.295775 -1.093325 -1.636277
v 0.190230 -0.933384 -1.396908
v -0.190230 -0.933384 -1.396908
v -0.295775 -1.093325 -1.636277
v 0.295775 -0.753096 -1.818133
v 0.190230 -0.642927 -1.552161
v -0.190230 -0.642927 -1.552161
v -0.295775 -0.753096 -1.818133
v 0.295775 -0.383925 -1.930120
v 0.190230 -0.327761 -1.647766
v -0.190230 -0.327761 -1.647766
v -0.295775 -0.383925 -1.930120
v 0.295775 0.000000 -1.967933
v 0.190230 0.000000 -1.680047
v -0.190230 0.000000 -1.680047
v -0.295775 0.000000 -1.967933
v 0.295775 0.383925 -1.930120
v 0.190230 0.327761 -1.647766
v -0.190230 0.327761 -1.647766
v -0.295775 0.383925 -1.930120
v 0.295775 0.753096 -1.818133
v 0.190230 0.642926 -1.552161
v -0.190230 0.642926 -1.552161
v -0.295775 0.753096 -1.818133
v 0.295775 1.093325 -1.636276
v 0.190230 0.933385 -1.396908
v -0.190230 0.933385 -1.396908
v -0.295775 1.093325 -1.636276
v 0.295775 1.391539 -1.391539
v 0.190230 1.187973 -1.187973
v -0.190230 1.187973 -1.187973
v -0.295775 1.391539 -1.391539
v 0.295775 1.636277 -1.093325
v 0.190230 1.396908 -0.933385
v -0.190230 1.396908 -0.933385
v -0.295775 1.636277 -1.093325
v 0.295775 1.818133 -0.753096
v 0.190230 1.552162 -0.642927
v -0.190230 1.552162 -0.642927
v -0.295775 1.818133 -0.753096
v 0.295775 1.930120 -0.383925
v 0.190230 1.647766 -0.327761
v -0.190230 1.647766 -0.327761
v -0.295775 1.930120 -0.383925
v 0.295775 1.967934 0.000000
v 0.190230 1.680048 0.000000
v -0.190230 1.680048 0.000000
v -0.295775 1.967934 0.000000
v 0.295775 1.930120 0.383925
v 0.190230 1.647766 0.327761
v -0.190230 1.647766 0.327761
v -0.295775 1.930120 0.383925
v 0.295775 1.818133 0.753096
v 0.190230 1.552162 0.642927
v -0.190230 1.552162 0.642927
v -0.295775 1.818133 0.753096
v 0.295775 1.636277 1.093325
v 0.190230 1.396909 0.933384
v -0.190230 1.396909 0.933384
v -0.295775 1.636277 1.093325
v 0.295775 1.391539 1.391539
v 0.190230 1.187973 1.187973
v -0.190230 1.187973 1.187973
v -0.295775 1.391539 1.391539
v 0.295775 1.093325 1.636277
v 0.190230 0.933385 1.396908
v -0.190230 0.933385 1.396908
v -0.295775 1.093325 1.636277
v 0.295775 0.753096 1.818133
v 0.190230 0.642926 1.552162
v -0.190230 0.642926 1.552162
v -0.295775 0.753096 1.818133
v 0.295775 0.383925 1.930120
v 0.190230 0.327761 1.647766
v -0.190230 0.327761 1.647766
v -0.295775 0.383925 1.930120
vt 0.066968 0.818005
vt 0.066968 0.823492
vt 0.066567 0.823492
vt 0.066567 0.818005
vt 0.063757 0.814327
vt 0.064271 0.816908
vt 0.064764 0.816758
vt 0.054527 0.818005
vt 0.054527 0.823492
vt 0.054126 0.823492
vt 0.054126 0.818005
vt 0.066165 0.823492
vt 0.066165 0.818005
vt 0.065219 0.816515
vt 0.057336 0.814327
vt 0.058343 0.816758
vt 0.057850 0.816908
vt 0.065764 0.823492
vt 0.065764 0.818005
vt 0.065618 0.816188
vt 0.058798 0.816515
vt 0.065363 0.823492
vt 0.065363 0.818005
vt 0.065945 0.815789
vt 0.059197 0.816188
vt 0.064961 0.823492
vt 0.064961 0.818005
vt 0.066188 0.815334
vt 0.059524 0.815789
vt 0.064560 0.823492
vt 0.064560 0.818005
vt 0.066338 0.814841
vt 0.059767 0.815334
vt 0.064159 0.823492
vt 0.064159 0.818005
vt 0.066389 0.814327
vt 0.059917 0.814841
vt 0.063757 0.823492
vt 0.063757 0.818005
vt 0.066338 0.813814
vt 0.059968 0.814327
vt 0.063356 0.823492
vt 0.063356 0.818005
vt 0.066188 0.813320
vt 0.059917 0.813814
vt 0.062955 0.823492
vt 0.062955 0.818005
vt 0.065945 0.812866
vt 0.059767 0.813320
vt 0.062553 0.823492
vt 0.062553 0.818005
vt 0.065618 0.812467
vt 0.059524 0.812866
vt 0.062152 0.823492
vt 0.062152 0.818005
vt 0.065219 0.812140
vt 0.059197 0.812467
vt 0.061751 0.823492
vt 0.061751 0.818005
vt 0.064764 0.811896
vt 0.058798 0.812140
vt 0.061350 0.823492
vt 0.061350 0.818005
vt 0.064271 0.811747
vt 0.058343 0.811896
vt 0.060948 0.823492
vt 0.060948 0.818005
vt 0.063757 0.811696
vt 0.057850 0.811747
vt 0.060547 0.823492
vt 0.060547 0.818005
vt 0.063244 0.811747
vt 0.057336 0.811696
vt 0.060146 0.823492
vt 0.060146 0.818005
vt 0.062751 0.811896
vt 0.056823 0.811747
vt 0.059744 0.823492
vt 0.059744 0.818005
vt 0.062296 0.812140
vt 0.056329 0.811896
vt 0.059343 0.823492
vt 0.059343 0.818005
vt 0.061897 0.812467
vt 0.055875 0.812140
vt 0.058942 0.823492
vt 0.058942 0.818005
vt 0.061570 0.812866
vt 0.055476 0.812467
vt 0.058540 0.823492
vt 0.058540 0.818005
vt 0.061326 0.813320
vt 0.055149 0.812866
vt 0.058139 0.823492
vt 0.058139 0.818005
vt 0.061177 0.813814
vt 0.054905 0.813320
vt 0.057738 0.823492
vt 0.057738 0.818005
vt 0.061126 0.814327
vt 0.054756 0.813814
vt 0.057336 0.823492
vt 0.057336 0.818005
vt 0.061177 0.814841
vt 0.054705 0.814327
vt 0.056935 0.823492
vt 0.056935 0.818005
vt 0.061326 0.815334
vt 0.054756 0.814841
vt 0.056534 0.823492
vt 0.056534 0.818005
vt 0.061570 0.815789
vt 0.054905 0.815334
vt 0.056132 0.823492
vt 0.056132 0.818005
vt 0.061897 0.816188
vt 0.055149 0.815789
vt 0.055731 0.823492
vt 0.055731 0.818005
vt 0.062296 0.816515
vt 0.055476 0.816188
vt 0.055330 0.823492
vt 0.055330 0.818005
vt 0.062751 0.816758
vt 0.055875 0.816515
vt 0.054929 0.823492
vt 0.054929 0.818005
vt 0.063244 0.816908
vt 0.056329 0.816758
vt 0.056823 0.816908
vt 0.063757 0.816959
vt 0.057336 0.816959
vt 0.063757 0.817409
vt 0.064359 0.817350
vt 0.057938 0.817350
vt 0.057336 0.817409
vt 0.064937 0.817175
vt 0.058516 0.817175
vt 0.065470 0.816890
vt 0.059049 0.816890
vt 0.065937 0.816507
vt 0.059516 0.816507
vt 0.066320 0.816040
vt 0.059899 0.816040
vt 0.066605 0.815507
vt 0.060184 0.815507
vt 0.066780 0.814929
vt 0.060359 0.814929
vt 0.066840 0.814327
vt 0.060418 0.814327
vt 0.066780 0.813726
vt 0.060359 0.813726
vt 0.066605 0.813148
vt 0.060184 0.813148
vt 0.066320 0.812615
vt 0.059899 0.812615
vt 0.065937 0.812148
vt 0.059516 0.812148
vt 0.065470 0.811765
vt 0.059049 0.811765
vt 0.064937 0.811480
vt 0.058516 0.811480
vt 0.064359 0.811305
vt 0.057938 0.811305
vt 0.063757 0.811245
vt 0.057336 0.811245
vt 0.063156 0.811305
vt 0.056735 0.811305
vt 0.062578 0.811480
vt 0.056157 0.811480
vt 0.062045 0.811765
vt 0.055624 0.811765
vt 0.061578 0.812148
vt 0.055157 0.812148
vt 0.061195 0.812615
vt 0.054774 0.812615
vt 0.060910 0.813148
vt 0.054489 0.813148
vt 0.060735 0.813726
vt 0.054314 0.813726
vt 0.060675 0.814327
vt 0.054254 0.814327
vt 0.060735 0.814929
vt 0.054314 0.814929
vt 0.060910 0.815507
vt 0.054489 0.815507
vt 0.061195 0.816040
vt 0.054774 0.816040
vt 0.061578 0.816507
vt 0.055157 0.816507
vt 0.062045 0.816890
vt 0.055624 0.816890
vt 0.062578 0.817175
vt 0.056157 0.817175
vt 0.063156 0.817350
vt 0.056735 0.817350
vn -0.0000 -0.0980 0.9952
vn 0.9957 -0.0270 0.0889
vn 0.0000 0.0980 0.9952
vn 0.0000 -0.2903 0.9569
vn 0.9957 -0.0438 0.0819
vn -0.9957 -0.0270 0.0889
vn 0.0000 -0.4714 0.8819
vn 0.9957 -0.0589 0.0718
vn -0.9957 -0.0438 0.0819
vn 0.0000 -0.6344 0.7730
vn 0.9957 -0.0718 0.0589
vn -0.9957 -0.0589 0.0718
vn 0.0000 -0.7730 0.6344
vn 0.9957 -0.0819 0.0438
vn -0.9957 -0.0718 0.0589
vn 0.0000 -0.8819 0.4714
vn 0.9957 -0.0889 0.0270
vn -0.9957 -0.0819 0.0438
vn 0.0000 -0.9569 0.2903
vn 0.9957 -0.0924 0.0091
vn -0.9957 -0.0889 0.0270
vn 0.0000 -0.9952 0.0980
vn 0.9957 -0.0924 -0.0091
vn -0.9957 -0.0924 0.0091
vn 0.0000 -0.9952 -0.0980
vn 0.9957 -0.0889 -0.0270
vn -0.9957 -0.0924 -0.0091
vn 0.0000 -0.9569 -0.2903
vn 0.9957 -0.0819 -0.0438
vn -0.9957 -0.0889 -0.0270
vn 0.0000 -0.8819 -0.4714
vn 0.9957 -0.0718 -0.0589
vn -0.9957 -0.0819 -0.0438
vn 0.0000 -0.7730 -0.6344
vn 0.9957 -0.0589 -0.0718
vn -0.9957 -0.0718 -0.0589
vn 0.0000 -0.6344 -0.7730
vn 0.9957 -0.0438 -0.0819
vn -0.9957 -0.0589 -0.0718
vn 0.0000 -0.4714 -0.8819
vn 0.9957 -0.0270 -0.0889
vn -0.9957 -0.0438 -0.0819
vn 0.0000 -0.2903 -0.9569
vn 0.9957 -0.0091 -0.0924
vn -0.9957 -0.0270 -0.0889
vn 0.0000 -0.0980 -0.9952
vn 0.9957 0.0091 -0.0924
vn -0.9957 -0.0091 -0.0924
vn 0.0000 0.0980 -0.9952
vn 0.9957 0.0270 -0.0889
vn -0.9957 0.0091 -0.0924
vn 0.0000 0.2903 -0.9569
vn 0.9957 0.0438 -0.0819
vn -0.9957 0.0270 -0.0889
vn 0.0000 0.4714 -0.8819
vn 0.9957 0.0589 -0.0718
vn -0.9957 0.0438 -0.0819
vn 0.0000 0.6344 -0.7730
vn 0.9957 0.0718 -0.0589
vn -0.9957 0.0589 -0.0718
vn 0.0000 0.7730 -0.6344
vn 0.9957 0.0819 -0.0438
vn -0.9957 0.0718 -0.0589
vn 0.0000 0.8819 -0.4714
vn 0.9957 0.0889 -0.0270
vn -0.9957 0.0819 -0.0438
vn 0.0000 0.9569 -0.2903
vn 0.9957 0.0924 -0.0091
vn -0.9957 0.0889 -0.0270
vn 0.0000 0.9952 -0.0980
vn 0.9957 0.0924 0.0091
vn -0.9957 0.0924 -0.0091
vn 0.0000 0.9952 0.0980
vn 0.9957 0.0889 0.0270
vn -0.9957 0.0924 0.0091
vn 0.0000 0.9569 0.2903
vn 0.9957 0.0819 0.0438
vn -0.9957 0.0889 0.0270
vn 0.0000 0.8819 0.4714
vn 0.9957 0.0718 0.0589
vn -0.9957 0.0819 0.0438
vn 0.0000 0.7730 0.6344
vn 0.9957 0.0589 0.0718
vn -0.9957 0.0718 0.0589
vn 0.0000 0.6344 0.7730
vn 0.9957 0.0438 0.0819
vn -0.9957 0.0589 0.0718
vn 0.0000 0.4714 0.8819
vn 0.9957 0.0270 0.0889
vn -0.9957 0.0438 0.0819
vn -0.0000 0.2903 0.9569
vn -0.9957 0.0270 0.0889
vn 0.9957 -0.0091 0.0924
vn -0.9957 -0.0091 0.0924
vn -0.9957 0.0091 0.0924
vn 0.9384 0.0339 -0.3440
vn -0.9384 0.0339 -0.3440
vn 0.9384 0.1003 -0.3308
vn -0.9384 0.1003 -0.3308
vn 0.9384 0.1630 -0.3049
vn -0.9384 0.1630 -0.3049
vn 0.9384 0.2193 -0.2672
vn -0.9384 0.2193 -0.2672
vn 0.9384 0.2672 -0.2193
vn -0.9384 0.2672 -0.2193
vn 0.9384 0.3049 -0.1630
vn -0.9384 0.3049 -0.1630
vn 0.9384 0.3308 -0.1003
vn -0.9384 0.3308 -0.1003
vn 0.9384 0.3440 -0.0339
vn -0.9384 0.3440 -0.0339
vn 0.9384 0.3440 0.0339
vn -0.9384 0.3440 0.0339
vn 0.9384 0.3308 0.1003
vn -0.9384 0.3308 0.1003
vn 0.9384 0.3049 0.1630
vn -0.9384 0.3049 0.1630
vn 0.9384 0.2672 0.2193
vn -0.9384 0.2672 0.2193
vn 0.9384 0.2193 0.2672
vn -0.9384 0.2193 0.2672
vn 0.9384 0.1630 0.3049
vn -0.9384 0.1630 0.3049
vn 0.9384 0.1003 0.3308
vn -0.9384 0.1003 0.3308
vn 0.9384 0.0339 0.3440
vn -0.9384 0.0339 0.3440
vn 0.9384 -0.0339 0.3440
vn -0.9384 -0.0339 0.3440
vn 0.9384 -0.1003 0.3308
vn -0.9384 -0.1003 0.3308
vn 0.9384 -0.1630 0.3049
vn -0.9384 -0.1630 0.3049
vn 0.9384 -0.2193 0.2672
vn -0.9384 -0.2193 0.2672
vn 0.9384 -0.2672 0.2193
vn -0.9384 -0.2672 0.2193
vn 0.9384 -0.3049 0.1630
vn -0.9384 -0.3049 0.1630
vn 0.9384 -0.3308 0.1003
vn -0.9384 -0.3308 0.1003
vn 0.9384 -0.3440 0.0339
vn -0.9384 -0.3440 0.0339
vn 0.9384 -0.3440 -0.0339
vn -0.9384 -0.3440 -0.0339
vn 0.9384 -0.3308 -0.1003
vn -0.9384 -0.3308 -0.1003
vn 0.9384 -0.3049 -0.1630
vn -0.9384 -0.3049 -0.1630
vn 0.9384 -0.2672 -0.2193
vn -0.9384 -0.2672 -0.2193
vn 0.9384 -0.2193 -0.2672
vn -0.9384 -0.2193 -0.2672
vn 0.9384 -0.1630 -0.3049
vn -0.9384 -0.1630 -0.3049
vn 0.9384 -0.1003 -0.3308
vn -0.9384 -0.1003 -0.3308
vn 0.9384 -0.0339 -0.3440
vn -0.9384 -0.0339 -0.3440
vn 0.9957 0.0091 0.0924
usemtl LowPolyMaterial
s off
f 4/1/1 5/2/1 10/3/1 7/4/1
f 1/5/2 8/6/2 12/7/2
f 127/8/3 130/9/3 5/10/3 4/11/3
f 7/4/4 10/3/4 14/12/4 11/13/4
f 1/5/5 12/7/5 16/14/5
f 2/15/6 13/16/6 9/17/6
f 11/13/7 14/12/7 18/18/7 15/19/7
f 1/5/8 16/14/8 20/20/8
f 2/15/9 17/21/9 13/16/9
f 15/19/10 18/18/10 22/22/10 19/23/10
f 1/5/11 20/20/11 24/24/11
f 2/15/12 21/25/12 17/21/12
f 19/23/13 22/22/13 26/26/13 23/27/13
f 1/5/14 24/24/14 28/28/14
f 2/15/15 25/29/15 21/25/15
f 23/27/16 26/26/16 30/30/16 27/31/16
f 1/5/17 28/28/17 32/32/17
f 2/15/18 29/33/18 25/29/18
f 27/31/19 30/30/19 34/34/19 31/35/19
f 1/5/20 32/32/20 36/36/20
f 2/15/21 33/37/21 29/33/21
f 31/35/22 34/34/22 38/38/22 35/39/22
f 1/5/23 36/36/23 40/40/23
f 2/15/24 37/41/24 33/37/24
f 35/39/25 38/38/25 42/42/25 39/43/25
f 1/5/26 40/40/26 44/44/26
f 2/15/27 41/45/27 37/41/27
f 39/43/28 42/42/28 46/46/28 43/47/28
f 1/5/29 44/44/29 48/48/29
f 2/15/30 45/49/30 41/45/30
f 43/47/31 46/46/31 50/50/31 47/51/31
f 1/5/32 48/48/32 52/52/32
f 2/15/33 49/53/33 45/49/33
f 47/51/34 50/50/34 54/54/34 51/55/34
f 1/5/35 52/52/35 56/56/35
f 2/15/36 53/57/36 49/53/36
f 51/55/37 54/54/37 58/58/37 55/59/37
f 1/5/38 56/56/38 60/60/38
f 2/15/39 57/61/39 53/57/39
f 55/59/40 58/58/40 62/62/40 59/63/40
f 1/5/41 60/60/41 64/64/41
f 2/15/42 61/65/42 57/61/42
f 59/63/43 62/62/43 66/66/43 63/67/43
f 1/5/44 64/64/44 68/68/44
f 2/15/45 65/69/45 61/65/45
f 63/67/46 66/66/46 70/70/46 67/71/46
f 1/5/47 68/68/47 72/72/47
f 2/15/48 69/73/48 65/69/48
f 67/71/49 70/70/49 74/74/49 71/75/49
f 1/5/50 72/72/50 76/76/50
f 2/15/51 73/77/51 69/73/51
f 71/75/52 74/74/52 78/78/52 75/79/52
f 1/5/53 76/76/53 80/80/53
f 2/15/54 77/81/54 73/77/54
f 75/79/55 78/78/55 82/82/55 79/83/55
f 1/5/56 80/80/56 84/84/56
f 2/15/57 81/85/57 77/81/57
f 79/83/58 82/82/58 86/86/58 83/87/58
f 1/5/59 84/84/59 88/88/59
f 2/15/60 85/89/60 81/85/60
f 83/87/61 86/86/61 90/90/61 87/91/61
f 1/5/62 88/88/62 92/92/62
f 2/15/63 89/93/63 85/89/63
f 87/91/64 90/90/64 94/94/64 91/95/64
f 1/5/65 92/92/65 96/96/65
f 2/15/66 93/97/66 89/93/66
f 91/95/67 94/94/67 98/98/67 95/99/67
f 1/5/68 96/96/68 100/100/68
f 2/15/69 97/101/69 93/97/69
f 95/99/70 98/98/70 102/102/70 99/103/70
f 1/5/71 100/100/71 104/104/71
f 2/15/72 101/105/72 97/101/72
f 99/103/73 102/102/73 106/106/73 103/107/73
f 1/5/74 104/104/74 108/108/74
f 2/15/75 105/109/75 101/105/75
f 103/107/76 106/106/76 110/110/76 107/111/76
f 1/5/77 108/108/77 112/112/77
f 2/15/78 109/113/78 105/109/78
f 107/111/79 110/110/79 114/114/79 111/115/79
f 1/5/80 112/112/80 116/116/80
f 2/15/81 113/117/81 109/113/81
f 111/115/82 114/114/82 118/118/82 115/119/82
f 1/5/83 116/116/83 120/120/83
f 2/15/84 117/121/84 113/117/84
f 115/119/85 118/118/85 122/122/85 119/123/85
f 1/5/86 120/120/86 124/124/86
f 2/15/87 121/125/87 117/121/87
f 119/123/88 122/122/88 126/126/88 123/127/88
f 1/5/89 124/124/89 128/128/89
f 2/15/90 125/129/90 121/125/90
f 123/127/91 126/126/91 130/9/91 127/8/91
f 2/15/92 129/130/92 125/129/92
f 1/5/93 3/131/93 8/6/93
f 2/15/94 9/17/94 6/132/94
f 2/15/95 6/132/95 129/130/95
f 4/133/96 7/134/96 8/6/96 3/131/96
f 10/135/97 5/136/97 6/132/97 9/17/97
f 7/134/98 11/137/98 12/7/98 8/6/98
f 14/138/99 10/135/99 9/17/99 13/16/99
f 11/137/100 15/139/100 16/14/100 12/7/100
f 18/140/101 14/138/101 13/16/101 17/21/101
f 15/139/102 19/141/102 20/20/102 16/14/102
f 22/142/103 18/140/103 17/21/103 21/25/103
f 19/141/104 23/143/104 24/24/104 20/20/104
f 26/144/105 22/142/105 21/25/105 25/29/105
f 23/143/106 27/145/106 28/28/106 24/24/106
f 30/146/107 26/144/107 25/29/107 29/33/107
f 27/145/108 31/147/108 32/32/108 28/28/108
f 34/148/109 30/146/109 29/33/109 33/37/109
f 31/147/110 35/149/110 36/36/110 32/32/110
f 38/150/111 34/148/111 33/37/111 37/41/111
f 35/149/112 39/151/112 40/40/112 36/36/112
f 42/152/113 38/150/113 37/41/113 41/45/113
f 39/151/114 43/153/114 44/44/114 40/40/114
f 46/154/115 42/152/115 41/45/115 45/49/115
f 43/153/116 47/155/116 48/48/116 44/44/116
f 50/156/117 46/154/117 45/49/117 49/53/117
f 47/155/118 51/157/118 52/52/118 48/48/118
f 54/158/119 50/156/119 49/53/119 53/57/119
f 51/157/120 55/159/120 56/56/120 52/52/120
f 58/160/121 54/158/121 53/57/121 57/61/121
f 55/159/122 59/161/122 60/60/122 56/56/122
f 62/162/123 58/160/123 57/61/123 61/65/123
f 59/161/124 63/163/124 64/64/124 60/60/124
f 66/164/125 62/162/125 61/65/125 65/69/125
f 63/163/126 67/165/126 68/68/126 64/64/126
f 70/166/127 66/164/127 65/69/127 69/73/127
f 67/165/128 71/167/128 72/72/128 68/68/128
f 74/168/129 70/166/129 69/73/129 73/77/129
f 71/167/130 75/169/130 76/76/130 72/72/130
f 78/170/131 74/168/131 73/77/131 77/81/131
f 75/169/132 79/171/132 80/80/132 76/76/132
f 82/172/133 78/170/133 77/81/133 81/85/133
f 79/171/134 83/173/134 84/84/134 80/80/134
f 86/174/135 82/172/135 81/85/135 85/89/135
f 83/173/136 87/175/136 88/88/136 84/84/136
f 90/176/137 86/174/137 85/89/137 89/93/137
f 87/175/138 91/177/138 92/92/138 88/88/138
f 94/178/139 90/176/139 89/93/139 93/97/139
f 91/177/140 95/179/140 96/96/140 92/92/140
f 98/180/141 94/178/141 93/97/141 97/101/141
f 95/179/142 99/181/142 100/100/142 96/96/142
f 102/182/143 98/180/143 97/101/143 101/105/143
f 99/181/144 103/183/144 104/104/144 100/100/144
f 106/184/145 102/182/145 101/105/145 105/109/145
f 103/183/146 107/185/146 108/108/146 104/104/146
f 110/186/147 106/184/147 105/109/147 109/113/147
f 107/185/148 111/187/148 112/112/148 108/108/148
f 114/188/149 110/186/149 109/113/149 113/117/149
f 111/187/150 115/189/150 116/116/150 112/112/150
f 118/190/151 114/188/151 113/117/151 117/121/151
f 115/189/152 119/191/152 120/120/152 116/116/152
f 122/192/153 118/190/153 117/121/153 121/125/153
f 119/191/154 123/193/154 124/124/154 120/120/154
f 126/194/155 122/192/155 121/125/155 125/129/155
f 123/193/156 127/195/156 128/128/156 124/124/156
f 130/196/157 126/194/157 125/129/157 129/130/157
f 127/195/158 4/133/158 3/131/158 128/128/158
f 5/136/159 130/196/159 129/130/159 6/132/159
f 1/5/160 128/128/160 3/131/160
